<?xml version="1.0" encoding="utf-8"?>
<!-- Generator: Adobe Illustrator 22.1.0, SVG Export Plug-In . SVG Version: 6.00 Build 0)  -->
<svg version="1.1" id="Calque_1" xmlns="http://www.w3.org/2000/svg" xmlns:xlink="http://www.w3.org/1999/xlink" x="0px" y="0px"
	 viewBox="0 0 35 35" style="enable-background:new 0 0 35 35;" xml:space="preserve">
<style type="text/css">
	.st0{fill:#929292;}
</style>
<path class="st0" d="M91.4,17.6C73.6-0.3,56-17.8,38.5-35.4C-18.8-92.6-76.1-149.8-133.4-207.1c-11.9-11.9-15.1-27.8-8.7-42.7
	c6.1-14,20-22.8,35.9-22.2c10.1,0.4,18.5,4.6,25.7,11.8C-24.4-204.1,31.7-148,87.8-92c27,27,54,54,81,80.9
	c17.7,17.7,17.8,39.6,0.2,57.2C85.9,129.2,2.8,212.2-80.3,295.3c-11,11-24.2,14.7-38.9,10.2c-14.2-4.4-23-14.5-25.5-29.2
	c-2.1-12.4,1.1-23.5,10.1-32.5C-79.5,188.6-24.4,133.5,30.7,78.5c19.1-19.1,38.2-38.1,57.2-57.2C89,20.2,90,19.1,91.4,17.6z"/>
</svg>
